<svg xmlns="http://www.w3.org/2000/svg" width="800" height="600" viewBox="0 0 800 600" fill="none">
  <g clip-path="url(#clip0_1_2)">
    <rect width="800" height="600" fill="white" fill-opacity="0"/>
    <rect x="150" y="100" width="500" height="350" rx="20" fill="#F0F9FF"/>
    <rect x="180" y="150" width="440" height="60" rx="10" fill="white" stroke="#3B82F6" stroke-width="2"/>
    <rect x="200" y="170" width="150" height="20" rx="5" fill="#3B82F6" fill-opacity="0.2"/>
    <rect x="500" y="170" width="100" height="20" rx="5" fill="#3B82F6" fill-opacity="0.2"/>
    
    <rect x="180" y="230" width="440" height="60" rx="10" fill="white" stroke="#3B82F6" stroke-width="2"/>
    <rect x="200" y="250" width="150" height="20" rx="5" fill="#3B82F6" fill-opacity="0.2"/>
    <rect x="500" y="250" width="100" height="20" rx="5" fill="#3B82F6" fill-opacity="0.2"/>
    
    <rect x="180" y="310" width="440" height="60" rx="10" fill="white" stroke="#10B981" stroke-width="2"/>
    <rect x="200" y="330" width="150" height="20" rx="5" fill="#10B981" fill-opacity="0.2"/>
    <rect x="500" y="330" width="100" height="20" rx="5" fill="#10B981" fill-opacity="0.2"/>
    
    <rect x="180" y="390" width="440" height="40" rx="10" fill="#3B82F6"/>
    <rect x="320" y="405" width="160" height="10" rx="5" fill="white"/>
    
    <circle cx="650" cy="150" r="30" fill="#EF4444" fill-opacity="0.2"/>
    <circle cx="650" cy="150" r="15" fill="#EF4444"/>
    
    <circle cx="700" cy="200" r="40" fill="#F59E0B" fill-opacity="0.2"/>
    <circle cx="700" cy="200" r="20" fill="#F59E0B"/>
    
    <circle cx="600" cy="100" r="20" fill="#10B981" fill-opacity="0.2"/>
    <circle cx="600" cy="100" r="10" fill="#10B981"/>
    
    <path d="M100 350C100 350 150 300 200 350C250 400 300 300 350 350C400 400 450 300 500 350" stroke="#3B82F6" stroke-width="4" stroke-linecap="round"/>
    <path d="M100 400C100 400 150 350 200 400C250 450 300 350 350 400C400 450 450 350 500 400" stroke="#10B981" stroke-width="4" stroke-linecap="round"/>
    
    <rect x="100" y="450" width="80" height="80" rx="10" fill="#3B82F6" fill-opacity="0.2"/>
    <rect x="120" y="470" width="40" height="40" rx="5" fill="#3B82F6"/>
    
    <rect x="200" y="450" width="80" height="80" rx="10" fill="#10B981" fill-opacity="0.2"/>
    <rect x="220" y="470" width="40" height="40" rx="5" fill="#10B981"/>
    
    <rect x="300" y="450" width="80" height="80" rx="10" fill="#F59E0B" fill-opacity="0.2"/>
    <rect x="320" y="470" width="40" height="40" rx="5" fill="#F59E0B"/>
    
    <rect x="400" y="450" width="80" height="80" rx="10" fill="#EF4444" fill-opacity="0.2"/>
    <rect x="420" y="470" width="40" height="40" rx="5" fill="#EF4444"/>
  </g>
  <defs>
    <clipPath id="clip0_1_2">
      <rect width="800" height="600" fill="white"/>
    </clipPath>
  </defs>
</svg> 